# xmcd
#
# Track frame offsets:
# 182
# 76532
# 111565
# 163382
# 220832
# 273107
#
# Disc length: 4045 seconds
#
#
# Revision: 4
# Processed by: cddbd v1.5.1PL0 Copyright (c) Steve Scherf et al.
# Submitted via: FreeRIP 2.51 
#
DISCID=4c0fcb06
DTITLE=Gershwin, George - Rhapsody in Blue
DYEAR=1971
DGENRE=Classical
TTITLE0=Rhapsody in Blue
TTITLE1=An American in Paris - Allegretto grazioso
TTITLE2=An American in Paris - Andante ma con ritmo deciso
TTITLE3=Concerto in F major for piano and orcestra - l. Allegro
TTITLE4=Concerto in F major for piano and orcestra - l l. Adagio
TTITLE5=Concerto in F major for piano and orcestra - l l l. Allegro agitato
EXTD=Werner Haas - piano\nMonte-Carlo National Opera Orchestra\nEdo de Waart conducting
EXTT0=
EXTT1=
EXTT2=
EXTT3=
EXTT4=
EXTT5=
PLAYORDER=
